<svg width="300" height="100" viewBox="0 0 300 100" fill="none" xmlns="http://www.w3.org/2000/svg">
<rect x="4" y="4" width="292" height="92" rx="46" fill="white"/>
<rect x="4" y="4" width="292" height="92" rx="46" stroke="#1A76D1" stroke-width="8"/>
<path d="M150 0H250C277.614 0 300 22.3858 300 50V50C300 77.6142 277.614 100 250 100H150V0Z" fill="#1A76D1"/>
<mask id="mask0_31_3" style="mask-type:alpha" maskUnits="userSpaceOnUse" x="150" y="0" width="150" height="100">
<rect x="150" width="150" height="100" fill="white"/>
</mask>
<g mask="url(#mask0_31_3)">
<path d="M176.594 56.9569C172.69 56.9851 169.632 56.0365 167.421 54.1111C165.231 52.1642 164.122 49.2708 164.094 45.4309C164.066 41.6123 165.155 38.7244 167.359 36.767C169.585 34.7882 172.821 33.7835 177.066 33.7528L189.226 33.665L189.256 37.8249L177.448 37.9102C174.653 37.9304 172.588 38.532 171.253 39.715C169.939 40.8979 169.291 42.7906 169.31 45.3932C169.328 47.8678 169.928 49.6982 171.11 50.8843C172.291 52.0491 174.013 52.6767 176.275 52.767L176.211 43.8713L190.547 43.7677L190.641 56.8554L176.594 56.9569ZM181.075 52.7644L185.491 52.7325L185.457 47.9646L181.041 47.9965L181.075 52.7644ZM195.112 56.6631L194.947 33.7837L220.034 33.6024L220.064 37.7623L200.097 37.9066L200.133 42.9624L218.245 42.8316L218.275 46.9915L200.163 47.1223L200.202 52.4662L220.169 52.3219L220.2 56.4818L195.112 56.6631ZM223.705 56.4565L223.54 33.5771L228.724 33.5396L245.034 49.8702L244.915 33.4226L250.035 33.3856L250.2 56.265L245.017 56.3025L228.706 39.9399L228.825 56.4195L223.705 56.4565Z" fill="white"/>
<path d="M173.992 73.936C172.68 73.936 171.656 74.3147 170.92 75.072C170.184 75.8293 169.816 76.8587 169.816 78.16C169.816 79.4613 170.2 80.4907 170.968 81.248C171.747 82.0053 172.792 82.384 174.104 82.384C174.765 82.384 175.352 82.2773 175.864 82.064V78.704H172.616V76.992H177.992V83.312C176.733 83.8773 175.368 84.16 173.896 84.16C171.965 84.16 170.424 83.6213 169.272 82.544C168.12 81.456 167.544 79.9947 167.544 78.16C167.544 76.3147 168.099 74.8533 169.208 73.776C170.317 72.6987 171.843 72.16 173.784 72.16C175.213 72.16 176.467 72.5013 177.544 73.184L176.872 74.8C175.912 74.224 174.952 73.936 173.992 73.936ZM180.678 84V72H182.87V84H180.678ZM186.101 76.688C186.848 75.9093 187.856 75.52 189.125 75.52C190.394 75.52 191.402 75.9093 192.149 76.688C192.896 77.4667 193.269 78.5173 193.269 79.84C193.269 81.1627 192.896 82.2133 192.149 82.992C191.402 83.7707 190.394 84.16 189.125 84.16C187.856 84.16 186.848 83.7707 186.101 82.992C185.365 82.2133 184.997 81.1627 184.997 79.84C184.997 78.5173 185.365 77.4667 186.101 76.688ZM189.125 82.576C189.776 82.576 190.282 82.3467 190.645 81.888C191.008 81.4187 191.189 80.736 191.189 79.84C191.189 78.944 191.008 78.2667 190.645 77.808C190.282 77.3387 189.776 77.104 189.125 77.104C188.485 77.104 187.984 77.3387 187.621 77.808C187.258 78.2667 187.077 78.944 187.077 79.84C187.077 80.736 187.258 81.4187 187.621 81.888C187.984 82.3467 188.485 82.576 189.125 82.576ZM194.997 72H197.077V76.752H197.109C197.738 75.9307 198.554 75.52 199.557 75.52C200.591 75.52 201.402 75.888 201.989 76.624C202.586 77.36 202.885 78.432 202.885 79.84C202.885 81.216 202.575 82.2827 201.957 83.04C201.349 83.7867 200.549 84.16 199.557 84.16C198.49 84.16 197.642 83.7173 197.013 82.832H196.981L196.949 84H194.997V72ZM200.885 79.84C200.885 78.944 200.714 78.272 200.373 77.824C200.042 77.376 199.573 77.152 198.965 77.152C198.399 77.152 197.941 77.3867 197.589 77.856C197.247 78.3147 197.077 78.9493 197.077 79.76V79.92C197.077 80.752 197.247 81.3973 197.589 81.856C197.941 82.304 198.399 82.528 198.965 82.528C199.53 82.528 199.989 82.2987 200.341 81.84C200.703 81.3707 200.885 80.704 200.885 79.84ZM207.98 75.52C209.249 75.52 210.161 75.7707 210.716 76.272C211.27 76.7627 211.548 77.5627 211.548 78.672V81.76C211.548 82.5173 211.628 83.264 211.788 84H209.82C209.756 83.648 209.708 83.2373 209.676 82.768H209.644C209.345 83.2053 208.94 83.5467 208.428 83.792C207.926 84.0373 207.377 84.16 206.78 84.16C206.001 84.16 205.377 83.9467 204.908 83.52C204.449 83.0827 204.22 82.48 204.22 81.712C204.22 80.784 204.609 80.0427 205.388 79.488C206.177 78.9227 207.308 78.64 208.78 78.64H209.468V78.592C209.468 78.0267 209.356 77.632 209.132 77.408C208.908 77.184 208.508 77.072 207.932 77.072C206.886 77.072 205.9 77.312 204.972 77.792L204.668 76.24C205.681 75.76 206.785 75.52 207.98 75.52ZM206.172 81.552C206.172 81.8933 206.273 82.16 206.476 82.352C206.678 82.544 206.956 82.64 207.308 82.64C207.916 82.64 208.428 82.4427 208.844 82.048C209.26 81.6533 209.468 81.1573 209.468 80.56V80.016H208.78C207.937 80.016 207.292 80.16 206.844 80.448C206.396 80.7253 206.172 81.0933 206.172 81.552ZM214.318 84V72H216.51V84H214.318Z" fill="white"/>
<path d="M275 80C276.381 80 277.5 78.8807 277.5 77.5C277.5 76.1193 276.381 75 275 75V80ZM225 80H275V75H225V80Z" fill="white"/>
<path d="M255.616 37.2128L261.455 29.3164L255.503 21.4832L259.792 21.4522L264.569 27.8639L266.593 27.8493L271.276 21.3692L275.566 21.3383L269.727 29.2566L275.68 37.0678L271.368 37.099L266.613 30.7092L264.59 30.7238L259.928 37.1817L255.616 37.2128Z" fill="white"/>
</g>
<path d="M46.4567 56.7047L46.2914 33.8253L50.5793 33.7943L61.2246 41.1416L61.3846 41.1405L71.9227 33.6401L76.2106 33.6091L76.3759 56.4885L71.256 56.5255L71.137 40.046L63.9083 44.9623L63.9922 56.578L58.8724 56.615L58.7884 44.9993L51.4575 40.1881L51.5766 56.6677L46.4567 56.7047ZM80.862 56.4561L80.6967 33.5767L105.784 33.3955L105.814 37.5554L85.8467 37.6996L85.8832 42.7555L103.995 42.6246L104.025 46.7845L85.9132 46.9154L85.9519 52.2592L105.919 52.115L105.949 56.2749L80.862 56.4561ZM109.455 56.2495L109.29 33.3701L113.066 33.3429L123.305 33.2369C127.444 33.207 130.661 34.1544 132.958 36.0792C135.255 38.004 136.416 40.8437 136.444 44.5982C136.471 48.3528 135.35 51.209 133.081 53.1668C130.813 55.1245 127.609 56.1184 123.471 56.1483L109.455 56.2495ZM122.983 37.3993L114.439 37.461L114.545 52.0527L123.089 51.9909C125.777 51.9715 127.81 51.3701 129.188 50.1868C130.566 49.0035 131.246 47.1532 131.228 44.6359C131.209 42.0973 130.503 40.2571 129.108 39.1151C127.713 37.9518 125.671 37.3799 122.983 37.3993Z" fill="#1A76D1"/>
</svg>
